<?xml version="1.0" encoding="iso-8859-1"?>
<!-- Generator: Adobe Illustrator 19.0.0, SVG Export Plug-In . SVG Version: 6.00 Build 0)  -->
<svg version="1.1" id="Layer_1" xmlns="http://www.w3.org/2000/svg" xmlns:xlink="http://www.w3.org/1999/xlink" x="0px" y="0px"
	 viewBox="0 0 511.999 511.999" style="enable-background:new 0 0 511.999 511.999;" xml:space="preserve">
<g>
	<path style="fill:#83C7C3;" d="M468.799,107.892c-22.275,0-44.151-10.767-57.4-30.654c-3.531-5.299-2.096-12.457,3.203-15.987
		c5.296-3.53,12.456-2.097,15.986,3.203c13.998,21.011,42.479,26.718,63.489,12.721c5.297-3.53,12.455-2.097,15.986,3.203
		c3.531,5.299,2.096,12.457-3.203,15.986C495.156,104.162,481.907,107.892,468.799,107.892z"/>
	<path style="fill:#83C7C3;" d="M37.884,59.317C16.993,59.317,0,76.31,0,97.2v10.975h276.83l0.046,31.693
		c18.319-0.023,36.143-13.927,40.616-31.693l6.491-25.801h72.47V59.317C396.453,59.317,37.884,59.317,37.884,59.317z"/>
</g>
<g>
	<path style="fill:#9AE1D3;" d="M276.83,108.176l0.046,31.693c-0.046,0-276.876,0-276.876,0v-31.693H276.83z"/>
	<path style="fill:#9AE1D3;" d="M183.089,368.508l42.011,7.196l-2.871,40.994c-18.308,15.322-37.192,29.79-56.307,43.464
		l-0.242,0.173c-14.572,10.434-34.852,7.067-45.274-7.505c-10.434-14.584-7.079-34.852,7.505-45.285
		c0.323-0.242,0.761-0.53,1.095-0.749C147.649,394.574,165.704,381.881,183.089,368.508z"/>
</g>
<path style="fill:#F9545B;" d="M415.717,46.462c11.932,3.332,18.999,15.529,16.186,27.473
	c-9.062,38.299-20.625,76.471-36.085,113.524c-15.426,37.031-34.886,72.793-58.186,105.892
	c-23.277,33.122-50.196,63.535-79.284,91.17c-11.702,11.125-23.772,21.847-36.12,32.177l-39.14-48.19
	c11.863-9.119,23.415-18.561,34.644-28.395c27.635-24.187,53.009-50.623,75.133-79.526c22.158-28.891,40.985-60.284,56.503-93.602
	c15.541-33.307,27.831-68.458,37.953-104.555C390.757,50.163,403.474,43.027,415.717,46.462z"/>
<g>
</g>
<g>
</g>
<g>
</g>
<g>
</g>
<g>
</g>
<g>
</g>
<g>
</g>
<g>
</g>
<g>
</g>
<g>
</g>
<g>
</g>
<g>
</g>
<g>
</g>
<g>
</g>
<g>
</g>
</svg>
